<?xml version="1.0" encoding="windows-1252"?>
<!DOCTYPE svg PUBLIC "-//W3C//DTD SVG 1.0//EN" "http://www.w3.org/TR/2001/REC-SVG-20010904/DTD/svg10.dtd">
<!-- Creator: CorelDRAW -->
<svg xmlns="http://www.w3.org/2000/svg" xmlns:odm="http://product.corel.com/CGS/11/cddns/" xml:space="preserve" width="600px" height="541px" style="shape-rendering:geometricPrecision; text-rendering:geometricPrecision; image-rendering:optimizeQuality; fill-rule:evenodd" viewBox="0 0 600 542">
 <defs>
  <style type="text/css">
   <![CDATA[
    .str1 {stroke:#000000;stroke-width:2}
    .str0 {stroke:#000000;stroke-width:2}
    .fil3 {fill:none}
    .fil1 {fill:#A500A5}
    .fil0 {fill:#B600B6}
    .fil2 {fill:#EE00EE}
   ]]>
  </style>
 </defs>
 <g id="Layer 1">
  <path class="fil0 str0" d="M102 98l346 -80 65 12 -300 101 -111 -33z"/>
  <path class="fil1 str0" d="M458 250l55 -220 -300 101 2 396 243 -277z"/>
  <path class="fil2 str0" d="M102 98l111 33 2 396 -77 -53 -36 -376z"/>
  <path class="fil3 str0" d="M456 20l-331 85"/>
  <path class="fil3 str0" d="M149 112l322 -90"/>
  <path class="fil3 str0" d="M168 117l314 -93"/>
  <path class="fil3 str0" d="M191 125l304 -99"/>
  <path class="fil3 str0" d="M125 105l27 378"/>
  <path class="fil3 str0" d="M167 494l-18 -382"/>
  <path class="fil3 str0" d="M168 117l14 387"/>
  <path class="fil3 str0" d="M197 514l-6 -389"/>
  <path class="fil3 str0" d="M112 204l101 40"/>
  <path class="fil3 str0" d="M121 291l92 40"/>
  <path class="fil3 str0" d="M128 361l86 48"/>
  <path class="fil3 str0" d="M134 424l81 46"/>
  <path class="fil3 str0" d="M462 47l-55 261"/>
  <path class="fil3 str0" d="M379 74l-45 317"/>
  <path class="fil3 str0" d="M216 469l251 -258"/>
  <path class="fil3 str0" d="M215 408l263 -238"/>
  <path class="fil3 str0" d="M489 126l-273 206"/>
  <path class="fil3 str0" d="M214 246l287 -166"/>
  <path class="fil3 str1" d="M379 75l-91 -20"/>
  <path class="fil3 str1" d="M462 47l-80 -14"/>
 </g>
</svg>